<?xml version="1.0" encoding="UTF-8" standalone="no"?>
<svg xmlns="http://www.w3.org/2000/svg" xmlns:xlink="http://www.w3.org/1999/xlink" contentStyleType="text/css" height="1082.3159px" preserveAspectRatio="none" style="width:1233px;height:1082px;background:#FFFFFF;" version="1.1" viewBox="0 0 1233 1082" width="1233.978px" zoomAndPan="magnify">
  <defs/>
  <g>
    <rect fill="#FFFFFF" height="763.5818" style="stroke:#181818;stroke-width:3.44686580561512;" width="34.4687" x="292.9836" y="233.6935"/>
    <rect fill="#FFFFFF" height="101.0295" style="stroke:#181818;stroke-width:3.44686580561512;" width="34.4687" x="1021.9957" y="620.7321"/>
    <line style="stroke:#181818;stroke-width:1.72343290280756;stroke-dasharray:5.0,5.0;" x1="308.4945" x2="308.4945" y1="125.7702" y2="1059.3188"/>
    <line style="stroke:#181818;stroke-width:1.72343290280756;stroke-dasharray:5.0,5.0;" x1="727.2887" x2="727.2887" y1="367.2393" y2="1059.3188"/>
    <line style="stroke:#181818;stroke-width:1.72343290280756;stroke-dasharray:5.0,5.0;" x1="1037.5066" x2="1037.5066" y1="510.2439" y2="1059.3188"/>
    <rect fill="#E2E2F0" height="105.089" rx="8.6172" ry="8.6172" style="stroke:#181818;stroke-width:1.72343290280756;" width="292.9836" x="163.7261" y="17.2343"/>
    <text fill="#000000" font-family="sans-serif" font-size="48.2561" lengthAdjust="spacing" textLength="244.7275" x="187.8542" y="88.0163">sudoku.py</text>
    <rect fill="#FFFFFF" height="763.5818" style="stroke:#181818;stroke-width:3.44686580561512;" width="34.4687" x="292.9836" y="233.6935"/>
    <rect fill="#FFFFFF" height="101.0295" style="stroke:#181818;stroke-width:3.44686580561512;" width="34.4687" x="1021.9957" y="620.7321"/>
    <polygon fill="#181818" points="251.6212,219.906,286.0899,233.6935,251.6212,247.4809,265.4087,233.6935" style="stroke:#181818;stroke-width:3.44686580561512;"/>
    <line style="stroke:#181818;stroke-width:3.44686580561512;" x1="0" x2="272.3024" y1="233.6935" y2="233.6935"/>
    <text fill="#000000" font-family="sans-serif" font-size="44.8093" lengthAdjust="spacing" textLength="227.4931" x="24.1281" y="217.3478">main(args)</text>
    <polygon fill="#181818" points="585.9672,320.9355,620.4358,334.723,585.9672,348.5104,599.7547,334.723" style="stroke:#181818;stroke-width:3.44686580561512;"/>
    <line style="stroke:#181818;stroke-width:3.44686580561512;" x1="327.4523" x2="606.6484" y1="334.723" y2="334.723"/>
    <text fill="#000000" font-family="sans-serif" font-size="44.8093" lengthAdjust="spacing" textLength="217.1525" x="351.5803" y="318.3773">load(path)</text>
    <rect fill="#E2E2F0" height="105.089" rx="8.6172" ry="8.6172" style="stroke:#181818;stroke-width:1.72343290280756;" width="203.3651" x="627.3296" y="261.2684"/>
    <text fill="#000000" font-family="sans-serif" font-size="48.2561" lengthAdjust="spacing" textLength="155.109" x="651.4576" y="332.0503">Puzzle</text>
    <polygon fill="#181818" points="823.8009,463.9401,858.2696,477.7275,823.8009,491.515,837.5884,477.7275" style="stroke:#181818;stroke-width:3.44686580561512;"/>
    <line style="stroke:#181818;stroke-width:3.44686580561512;" x1="327.4523" x2="844.4821" y1="477.7275" y2="477.7275"/>
    <text fill="#000000" font-family="sans-serif" font-size="44.8093" lengthAdjust="spacing" textLength="86.1716" x="351.5803" y="461.3818">new</text>
    <rect fill="#E2E2F0" height="105.089" rx="8.6172" ry="8.6172" style="stroke:#181818;stroke-width:1.72343290280756;" width="348.1334" x="865.1633" y="404.2729"/>
    <text fill="#000000" font-family="sans-serif" font-size="48.2561" lengthAdjust="spacing" textLength="299.8773" x="889.2914" y="475.0549">Backtracking</text>
    <polygon fill="#181818" points="980.6333,606.9446,1015.102,620.7321,980.6333,634.5195,994.4208,620.7321" style="stroke:#181818;stroke-width:3.44686580561512;"/>
    <line style="stroke:#181818;stroke-width:3.44686580561512;" x1="327.4523" x2="1001.3145" y1="620.7321" y2="620.7321"/>
    <text fill="#000000" font-family="sans-serif" font-size="44.8093" lengthAdjust="spacing" textLength="279.1961" x="351.5803" y="604.3864">solve(Puzzle)</text>
    <polygon fill="#181818" points="365.3678,707.9741,330.8991,721.7616,365.3678,735.549,351.5803,721.7616" style="stroke:#181818;stroke-width:3.44686580561512;"/>
    <line style="stroke:#181818;stroke-width:3.44686580561512;stroke-dasharray:2.0,2.0;" x1="344.6866" x2="1035.7832" y1="721.7616" y2="721.7616"/>
    <text fill="#000000" font-family="sans-serif" font-size="44.8093" lengthAdjust="spacing" textLength="141.3215" x="386.049" y="705.4159">solved</text>
    <path d="M344.6866,766.5708 L344.6866,904.4455 L713.5012,904.4455 L713.5012,801.0395 L679.0326,766.5708 L344.6866,766.5708 " fill="#FEFFDD" style="stroke:#181818;stroke-width:1.72343290280756;"/>
    <path d="M679.0326,766.5708 L679.0326,801.0395 L713.5012,801.0395 L679.0326,766.5708 " fill="#FEFFDD" style="stroke:#181818;stroke-width:1.72343290280756;"/>
    <text fill="#000000" font-family="sans-serif" font-size="44.8093" lengthAdjust="spacing" textLength="296.4305" x="365.3678" y="827.1266">print solution</text>
    <text fill="#000000" font-family="sans-serif" font-size="44.8093" lengthAdjust="spacing" textLength="199.9182" x="365.3678" y="879.9">to puzzle</text>
    <line style="stroke:#A80036;stroke-width:6.89373161123024;" x1="1008.2082" x2="1070.2518" y1="966.2534" y2="1028.297"/>
    <line style="stroke:#A80036;stroke-width:6.89373161123024;" x1="1008.2082" x2="1070.2518" y1="1028.297" y2="966.2534"/>
    <line style="stroke:#A80036;stroke-width:6.89373161123024;" x1="697.9903" x2="760.0339" y1="966.2534" y2="1028.297"/>
    <line style="stroke:#A80036;stroke-width:6.89373161123024;" x1="697.9903" x2="760.0339" y1="1028.297" y2="966.2534"/>
    <!--MD5=[5d685c6ae6ff2cb44db910ff24a09f3f]
@startuml
hide footbox
scale 1920*1080
skinparam classAttributeIconSize 0

[-> sudoku.py : main(args)
activate sudoku.py
  create Puzzle
  sudoku.py -> Puzzle : load(path)

  create Backtracking
  sudoku.py -> Backtracking : new

  sudoku.py -> Backtracking : solve(Puzzle)
  activate Backtracking
    return solved
  deactivate Backtracking

  note right of sudoku.py
    print solution
    to puzzle
  end note
  sudoku.py -[hidden]> Puzzle : __str__

  destroy Backtracking
  destroy Puzzle
deactivate sudoku.py

@enduml

PlantUML version 1.2022.6(Tue Jun 21 11:34:49 MDT 2022)
(GPL source distribution)
Java Runtime: OpenJDK Runtime Environment
JVM: OpenJDK 64-Bit Server VM
Default Encoding: UTF-8
Language: en
Country: US
-->
  </g>
</svg>
